grf
version=1
nRows=9
nColumns=37
inDegrees=no
endheader
time	ground_force_1_vx	ground_force_1_vy	ground_force_1_vz	ground_force_1_px	ground_force_1_py	ground_force_1_pz	ground_moment_1_mx	ground_moment_1_my	ground_moment_1_mz	ground_force_2_vx	ground_force_2_vy	ground_force_2_vz	ground_force_2_px	ground_force_2_py	ground_force_2_pz	ground_moment_2_mx	ground_moment_2_my	ground_moment_2_mz	ground_force_3_vx	ground_force_3_vy	ground_force_3_vz	ground_force_3_px	ground_force_3_py	ground_force_3_pz	ground_moment_3_mx	ground_moment_3_my	ground_moment_3_mz	ground_force_4_vx	ground_force_4_vy	ground_force_4_vz	ground_force_4_px	ground_force_4_py	ground_force_4_pz	ground_moment_4_mx	ground_moment_4_my	ground_moment_4_mz
      0.00000000	      0.00000000	     -0.00000000	      0.00000000	      0.00000000	      0.00000000	      0.00000000	      0.00000000	      0.00000000	      0.00000000	     -5.56170130	     40.44015884	   -375.78344727	   -256.86231045	  -1090.26740813	      0.00000000	      0.00000000	      0.00000000	   2094.00293381	     -3.59527275	    -37.85325973	   -384.60028076	   -259.40749393	   -723.83899940	      0.00000000	     -0.00000000	     -0.00000000	  -2844.61611585	      0.00000000	     -0.00000000	      0.00000000	      0.00000000	      0.00000000	      0.00000000	      0.00000000	      0.00000000	      0.00000000
      0.01000000	      0.00000000	     -0.00000000	      0.00000000	      0.00000000	      0.00000000	      0.00000000	      0.00000000	      0.00000000	      0.00000000	     -6.30481911	     40.46520233	   -376.60876465	   -257.08950956	  -1089.66490858	      0.00000000	      0.00000000	      0.00000000	   1943.16219977	     -3.53802037	    -38.12377136	   -382.62918091	   -258.74341528	   -725.12246699	      0.00000000	      0.00000000	     -0.00000000	  -2910.17589206	      0.00000000	     -0.00000000	      0.00000000	      0.00000000	      0.00000000	      0.00000000	      0.00000000	      0.00000000	      0.00000000
      0.02000000	      0.00000000	     -0.00000000	      0.00000000	      0.00000000	      0.00000000	      0.00000000	      0.00000000	      0.00000000	      0.00000000	     -6.02473164	     40.56641388	   -378.42034912	   -257.71380922	  -1090.89909160	      0.00000000	      0.00000000	      0.00000000	   2066.10421594	     -3.62629510	    -38.33701674	   -383.34713745	   -258.78917360	   -724.22475492	      0.00000000	      0.00000000	     -0.00000000	  -2953.69413240	      0.00000000	     -0.00000000	      0.00000000	      0.00000000	      0.00000000	      0.00000000	      0.00000000	      0.00000000	      0.00000000
      0.03000000	      0.00000000	     -0.00000000	      0.00000000	      0.00000000	      0.00000000	      0.00000000	      0.00000000	      0.00000000	      0.00000000	     -5.89418173	     40.59576035	   -379.78280640	   -257.67591195	  -1090.57137913	      0.00000000	      0.00000000	      0.00000000	   2128.38499448	     -3.77871254	    -38.47256055	   -384.86160278	   -258.34935504	   -723.06667031	      0.00000000	      0.00000000	     -0.00000000	  -3016.27456195	      0.00000000	     -0.00000000	      0.00000000	      0.00000000	      0.00000000	      0.00000000	      0.00000000	      0.00000000	      0.00000000
      0.04000000	      0.00000000	     -0.00000000	      0.00000000	      0.00000000	      0.00000000	      0.00000000	      0.00000000	      0.00000000	      0.00000000	     -6.18374443	     40.88466263	   -379.12570190	   -256.98873309	  -1089.18596526	      0.00000000	      0.00000000	     -0.00000000	   1909.39206130	     -3.90921000	    -38.58476986	   -383.76434326	   -258.70477390	   -724.48117360	      0.00000000	     -0.00000000	     -0.00000000	  -2938.87279619	      0.00000000	     -0.00000000	      0.00000000	      0.00000000	      0.00000000	      0.00000000	      0.00000000	      0.00000000	      0.00000000
      0.05000000	      0.00000000	     -0.00000000	      0.00000000	      0.00000000	      0.00000000	      0.00000000	      0.00000000	      0.00000000	      0.00000000	     -5.80548048	     40.82172394	   -380.51101685	   -257.52512158	  -1089.41072359	      0.00000000	      0.00000000	      0.00000000	   1935.30480454	     -3.73202998	    -38.92106977	   -386.16168213	   -258.32134446	   -724.11877037	      0.00000000	      0.00000000	      0.00000000	  -2977.97503418	      0.00000000	     -0.00000000	      0.00000000	      0.00000000	      0.00000000	      0.00000000	      0.00000000	      0.00000000	      0.00000000
      0.06000000	      0.00000000	     -0.00000000	      0.00000000	      0.00000000	      0.00000000	      0.00000000	      0.00000000	      0.00000000	      0.00000000	     -5.59319639	     40.58838654	   -381.46212769	   -257.63244116	  -1090.07184039	      0.00000000	      0.00000000	      0.00000000	   1961.45988784	     -3.93804698	    -38.77322353	   -386.93548584	   -258.87363127	   -724.20979795	      0.00000000	      0.00000000	     -0.00000000	  -3033.69157548	      0.00000000	     -0.00000000	      0.00000000	      0.00000000	      0.00000000	      0.00000000	      0.00000000	      0.00000000	      0.00000000
      0.07000000	      0.00000000	     -0.00000000	      0.00000000	      0.00000000	      0.00000000	      0.00000000	      0.00000000	      0.00000000	      0.00000000	     -5.25616074	     40.73984528	   -381.13864136	   -258.67319788	  -1089.15845769	      0.00000000	      0.00000000	      0.00000000	   1954.25727735	     -3.76689537	    -39.01053586	   -386.64627075	   -258.45871049	   -724.42303225	      0.00000000	      0.00000000	      0.00000000	  -2964.82000750	      0.00000000	     -0.00000000	      0.00000000	      0.00000000	      0.00000000	      0.00000000	      0.00000000	      0.00000000	      0.00000000
      0.08000000	      0.00000000	     -0.00000000	      0.00000000	      0.00000000	      0.00000000	      0.00000000	      0.00000000	      0.00000000	      0.00000000	     -5.26342010	     40.56932831	   -382.45095825	   -258.54987343	  -1089.90484101	      0.00000000	      0.00000000	      0.00000000	   1914.26525638	     -4.16941029	    -38.85470163	   -387.18206787	   -258.12259016	   -723.81179512	      0.00000000	     -0.00000000	      0.00000000	  -2882.53280145	      0.00000000	     -0.00000000	      0.00000000	      0.00000000	      0.00000000	      0.00000000	      0.00000000	      0.00000000	      0.00000000
